<svg width="150" height="150" xmlns="http://www.w3.org/2000/svg">

 <g>
  <title>background</title>
  <rect fill="none" id="canvas_background" height="402" width="582" y="-1" x="-1"/>
 </g>
 <g>
  <title>Layer 1</title>
  <circle id="svg_2" r="75" opacity="0.1" fill="#118ACB" cy="-1064.96" cx="1214.981"/>
  <path id="svg_3" opacity="0.1" fill="#118ACB" d="m1214.981,-1139.96l0,150c41.42,0 75,-33.579 75,-75.001c0,-41.421 -33.58,-74.999 -75,-74.999z"/>
  <circle id="svg_4" r="65.488" fill="#118ACB" cy="-1064.96" cx="1214.981"/>
  <path id="svg_5" fill="#1281BD" d="m1214.981,-1130.448l0,130.976c36.168,0 65.486,-29.319 65.486,-65.488c0.001,-36.168 -29.318,-65.488 -65.486,-65.488z"/>
  <path id="svg_7" fill="#1281BD" d="m1149.565,-1067.888c-0.041,0.971 -0.072,1.945 -0.072,2.927c0,36.169 29.32,65.488 65.488,65.488l0,-5.853c-35.187,0.001 -63.882,-27.752 -65.416,-62.562z"/>
  <path id="svg_8" fill="#1178B1" d="m1280.396,-1067.888c-1.533,34.81 -30.229,62.562 -65.414,62.562l0,5.853c36.168,0 65.486,-29.319 65.486,-65.488c0,-0.981 -0.03,-1.956 -0.072,-2.927z"/>
  <path id="svg_9" fill="#FFFFFF" d="m1171.402,-1056.568l0,-11.797c0,-1.002 0.814,-1.822 1.824,-1.822l20.399,0l-8.863,15.446l-11.532,0c-1.013,-0.001 -1.828,-0.825 -1.828,-1.827zm14.518,24.939l-6.78,4.608c-0.917,0.627 -1.56,0.237 -1.436,-0.87l0.909,-7.904c0.126,-1.096 1.016,-1.55 1.974,-0.996l5.249,3.01c0.966,0.554 1.003,1.522 0.084,2.152zm4.387,-5.2c-0.554,0.959 -1.792,1.293 -2.753,0.739l-5.25,-3.016c-0.957,-0.549 -1.294,-1.788 -0.741,-2.75l7.401,-12.889l8.87,-15.445l8.047,-14.02c0.548,-0.957 1.792,-1.297 2.751,-0.739l5.246,3.007c0.963,0.559 1.294,1.794 0.741,2.752l-7.379,12.856l-6.644,11.588l-10.289,17.917zm14.492,-17.913l8.863,-15.446l8.029,0c3.105,7.061 5.423,11.99 7.167,15.446l-24.059,0zm31.405,5.18c-2.097,-1.062 -12.57,-25.226 -15.253,-31.526c-2.684,-6.311 -10.788,-23.089 -8.172,-24.399c1.871,-0.931 8.571,12.279 13.586,20.211c2.863,4.533 7.509,13.138 11.21,20.129c0.048,0.089 0.094,0.185 0.144,0.276c0.164,0.314 0.331,0.629 0.495,0.938c0.05,0.09 0.094,0.174 0.138,0.259c0.15,0.276 0.289,0.549 0.431,0.819c0.08,0.159 0.162,0.31 0.242,0.453c0.091,0.183 0.187,0.364 0.279,0.536c0.125,0.237 0.252,0.471 0.378,0.703c0.016,0.049 0.04,0.083 0.059,0.127c1.603,3.043 2.827,5.389 3.312,6.296c0.038,0.071 0.078,0.142 0.104,0.192c1.289,2.336 -1.227,4.289 -2.631,4.864c-1.407,0.581 -2.22,1.167 -4.322,0.122zm6.882,11.105l-3.162,-4.999c-0.65,-1.044 -0.318,-2.325 0.743,-2.878l3.012,-1.548c1.065,-0.542 2.395,-0.1 2.964,0.983l2.498,4.804c0.564,1.087 0.181,2.483 -0.847,3.093l-2.15,1.287c-1.024,0.626 -2.407,0.288 -3.058,-0.742zm12.855,14.325c-0.663,-2.125 -5.709,-2.262 -7.972,-5.449c-2.264,-3.185 -0.393,-4.811 0.393,-5.571c9.168,-5.166 7.579,11.02 7.579,11.02zm2.621,-32.436c0,1.001 -0.812,1.826 -1.824,1.826l-9.786,0c-0.132,-0.533 -0.326,-1.058 -0.6,-1.561c-0.268,-0.474 -1.015,-1.897 -1.959,-3.701c-1.359,-2.594 -3.292,-6.274 -5.379,-10.182l17.722,0c1.011,0 1.824,0.82 1.824,1.822l0,11.794l0.002,0l0,0.002z"/>
  <circle id="svg_11" r="75" opacity="0.1" fill="#118ACB" cy="-1064.96" cx="1214.981"/>
  <path id="svg_12" opacity="0.1" fill="#118ACB" d="m1214.981,-1139.96l0,150c41.42,0 75,-33.579 75,-75.001c0,-41.421 -33.58,-74.999 -75,-74.999z"/>
  <circle id="svg_13" r="65.488" fill="#118ACB" cy="-1064.96" cx="1214.981"/>
  <path id="svg_14" fill="#1281BD" d="m1214.981,-1130.448l0,130.976c36.168,0 65.486,-29.319 65.486,-65.488c0.001,-36.168 -29.318,-65.488 -65.486,-65.488z"/>
  <path id="svg_16" fill="#1281BD" d="m1149.565,-1067.888c-0.041,0.971 -0.072,1.945 -0.072,2.927c0,36.169 29.32,65.488 65.488,65.488l0,-5.853c-35.187,0.001 -63.882,-27.752 -65.416,-62.562z"/>
  <path id="svg_17" fill="#1178B1" d="m1280.396,-1067.888c-1.533,34.81 -30.229,62.562 -65.414,62.562l0,5.853c36.168,0 65.486,-29.319 65.486,-65.488c0,-0.981 -0.03,-1.956 -0.072,-2.927z"/>
  <path id="svg_18" fill="#FFFFFF" d="m1171.402,-1056.568l0,-11.797c0,-1.002 0.814,-1.822 1.824,-1.822l20.399,0l-8.863,15.446l-11.532,0c-1.013,-0.001 -1.828,-0.825 -1.828,-1.827zm14.518,24.939l-6.78,4.608c-0.917,0.627 -1.56,0.237 -1.436,-0.87l0.909,-7.904c0.126,-1.096 1.016,-1.55 1.974,-0.996l5.249,3.01c0.966,0.554 1.003,1.522 0.084,2.152zm4.387,-5.2c-0.554,0.959 -1.792,1.293 -2.753,0.739l-5.25,-3.016c-0.957,-0.549 -1.294,-1.788 -0.741,-2.75l7.401,-12.889l8.87,-15.445l8.047,-14.02c0.548,-0.957 1.792,-1.297 2.751,-0.739l5.246,3.007c0.963,0.559 1.294,1.794 0.741,2.752l-7.379,12.856l-6.644,11.588l-10.289,17.917zm14.492,-17.913l8.863,-15.446l8.029,0c3.105,7.061 5.423,11.99 7.167,15.446l-24.059,0zm31.405,5.18c-2.097,-1.062 -12.57,-25.226 -15.253,-31.526c-2.684,-6.311 -10.788,-23.089 -8.172,-24.399c1.871,-0.931 8.571,12.279 13.586,20.211c2.863,4.533 7.509,13.138 11.21,20.129c0.048,0.089 0.094,0.185 0.144,0.276c0.164,0.314 0.331,0.629 0.495,0.938c0.05,0.09 0.094,0.174 0.138,0.259c0.15,0.276 0.289,0.549 0.431,0.819c0.08,0.159 0.162,0.31 0.242,0.453c0.091,0.183 0.187,0.364 0.279,0.536c0.125,0.237 0.252,0.471 0.378,0.703c0.016,0.049 0.04,0.083 0.059,0.127c1.603,3.043 2.827,5.389 3.312,6.296c0.038,0.071 0.078,0.142 0.104,0.192c1.289,2.336 -1.227,4.289 -2.631,4.864c-1.407,0.581 -2.22,1.167 -4.322,0.122zm6.882,11.105l-3.162,-4.999c-0.65,-1.044 -0.318,-2.325 0.743,-2.878l3.012,-1.548c1.065,-0.542 2.395,-0.1 2.964,0.983l2.498,4.804c0.564,1.087 0.181,2.483 -0.847,3.093l-2.15,1.287c-1.024,0.626 -2.407,0.288 -3.058,-0.742zm12.855,14.325c-0.663,-2.125 -5.709,-2.262 -7.972,-5.449c-2.264,-3.185 -0.393,-4.811 0.393,-5.571c9.168,-5.166 7.579,11.02 7.579,11.02zm2.621,-32.436c0,1.001 -0.812,1.826 -1.824,1.826l-9.786,0c-0.132,-0.533 -0.326,-1.058 -0.6,-1.561c-0.268,-0.474 -1.015,-1.897 -1.959,-3.701c-1.359,-2.594 -3.292,-6.274 -5.379,-10.182l17.722,0c1.011,0 1.824,0.82 1.824,1.822l0,11.794l0.002,0l0,0.002z"/>
  <circle id="svg_20" r="75" opacity="0.1" fill="#118ACB" cy="75" cx="75"/>
  <path id="svg_21" opacity="0.1" fill="#118ACB" d="m75,0l0,150c41.42,0 75,-33.579 75,-75.001c0,-41.421 -33.58,-74.999 -75,-74.999z"/>
  <circle id="svg_22" r="65.488" fill="#118ACB" cy="75" cx="75"/>
  <path id="svg_23" fill="#1281BD" d="m75,9.512l0,130.976c36.168,0 65.486,-29.319 65.486,-65.488c0,-36.168 -29.318,-65.488 -65.486,-65.488z"/>
  <path id="svg_25" fill="#1281BD" d="m9.584,72.072c-0.041,0.971 -0.072,1.945 -0.072,2.927c0,36.169 29.32,65.488 65.488,65.488l0,-5.853c-35.188,0.001 -63.883,-27.752 -65.416,-62.562z"/>
  <path id="svg_26" fill="#1178B1" d="m140.414,72.072c-1.533,34.81 -30.229,62.562 -65.414,62.562l0,5.853c36.168,0 65.486,-29.319 65.486,-65.488c0,-0.981 -0.029,-1.956 -0.072,-2.927z"/>
  <path id="svg_27" fill="#FFFFFF" d="m31.421,83.393l0,-11.798c0,-1.002 0.814,-1.822 1.824,-1.822l20.399,0l-8.863,15.446l-11.532,0c-1.014,0 -1.828,-0.825 -1.828,-1.826zm14.517,24.937l-6.78,4.609c-0.917,0.627 -1.56,0.236 -1.436,-0.871l0.909,-7.903c0.126,-1.096 1.016,-1.55 1.974,-0.996l5.249,3.011c0.966,0.553 1.003,1.521 0.084,2.15zm4.387,-5.199c-0.554,0.959 -1.792,1.293 -2.753,0.739l-5.25,-3.016c-0.957,-0.549 -1.294,-1.788 -0.741,-2.751l7.401,-12.889l8.87,-15.444l8.047,-14.02c0.548,-0.957 1.792,-1.297 2.751,-0.739l5.246,3.007c0.963,0.559 1.294,1.794 0.741,2.752l-7.379,12.856l-6.644,11.588l-10.289,17.917zm14.492,-17.912l8.863,-15.446l8.029,0c3.105,7.061 5.423,11.989 7.167,15.446l-24.059,0zm31.406,5.179c-2.097,-1.062 -12.57,-25.226 -15.253,-31.526c-2.684,-6.311 -10.788,-23.089 -8.172,-24.399c1.871,-0.931 8.571,12.279 13.586,20.211c2.863,4.533 7.509,13.138 11.21,20.129c0.048,0.089 0.094,0.185 0.144,0.276c0.164,0.314 0.331,0.629 0.495,0.938c0.05,0.09 0.094,0.174 0.138,0.259c0.15,0.276 0.289,0.549 0.431,0.819c0.08,0.159 0.162,0.31 0.242,0.453c0.091,0.183 0.187,0.364 0.279,0.536c0.125,0.237 0.252,0.471 0.378,0.703c0.016,0.049 0.04,0.082 0.059,0.127c1.603,3.043 2.827,5.389 3.312,6.295c0.038,0.072 0.078,0.143 0.104,0.193c1.289,2.336 -1.227,4.288 -2.631,4.863c-1.407,0.582 -2.221,1.168 -4.322,0.123zm6.881,11.105l-3.162,-4.999c-0.65,-1.044 -0.318,-2.324 0.743,-2.879l3.012,-1.547c1.065,-0.543 2.395,-0.101 2.964,0.982l2.498,4.804c0.564,1.087 0.181,2.483 -0.847,3.093l-2.15,1.287c-1.023,0.627 -2.406,0.289 -3.058,-0.741zm12.856,14.325c-0.663,-2.125 -5.709,-2.262 -7.972,-5.449c-2.264,-3.185 -0.393,-4.811 0.393,-5.57c9.168,-5.166 7.579,11.019 7.579,11.019zm2.621,-32.435c0,1.001 -0.812,1.826 -1.824,1.826l-9.786,0c-0.132,-0.533 -0.326,-1.059 -0.6,-1.561c-0.268,-0.475 -1.015,-1.898 -1.959,-3.701c-1.359,-2.594 -3.292,-6.274 -5.379,-10.182l17.722,0c1.011,0 1.824,0.82 1.824,1.822l0,11.795l0.002,0l0,0.001z"/>
 </g>
</svg>