<svg width="18" height="20" xmlns="http://www.w3.org/2000/svg">
 <title/>
 <desc/>

 <g>
  <title>background</title>
  <rect fill="none" id="canvas_background" height="402" width="582" y="-1" x="-1"/>
 </g>
 <g>
  <title>Layer 1</title>
  <path fill="#ffffff" id="Shape" d="m11.2,10l2.3,2.3c0.3,-0.7 0.4,-1.5 0.4,-2.3c0,-0.8 -0.2,-1.6 -0.4,-2.3l-2.3,2.3l0,0zm5.3,-5.3l-1.2,1.3c0.6,1.2 1,2.6 1,4c0,1.4 -0.4,2.8 -1,4l1.2,1.2c1,-1.5 1.5,-3.4 1.5,-5.3c0,-1.9 -0.5,-3.7 -1.5,-5.2l0,0zm-3.8,1l-5.7,-5.7l-1,0l0,7.6l-4.6,-4.6l-1.4,1.4l5.6,5.6l-5.6,5.6l1.4,1.4l4.6,-4.6l0,7.6l1,0l5.7,-5.7l-4.3,-4.3l4.3,-4.3l0,0zm-4.7,-1.9l1.9,1.9l-1.9,1.9l0,-3.8l0,0zm1.9,10.5l-1.9,1.9l0,-3.8l1.9,1.9l0,0z"/>
 </g>
</svg>