<svg width="512" height="512" xmlns="http://www.w3.org/2000/svg">

 <g>
  <title>background</title>
  <rect fill="none" id="canvas_background" height="402" width="582" y="-1" x="-1"/>
 </g>
 <g>
  <title>Layer 1</title>
  <path fill="#94ffaf" id="svg_3" d="m256,48c-114.9,0 -208,93.1 -208,208s93.1,208 208,208c114.9,0 208,-93.1 208,-208s-93.1,-208 -208,-208zm0,398.7c-105.1,0 -190.7,-85.5 -190.7,-190.7c0,-105.1 85.5,-190.7 190.7,-190.7c105.1,0 190.7,85.5 190.7,190.7c0,105.1 -85.6,190.7 -190.7,190.7z"/>
  <path transform="rotate(-2 257.4639892578126,255.4397735595698) " stroke="null" fill="#94ffaf" id="svg_6" d="m257.463985,135.215457c-67.662029,0 -122.46521,53.800385 -122.46521,120.224323c0,66.423939 54.803181,120.224323 122.46521,120.224323c67.662029,0 122.46521,-53.800385 122.46521,-120.224323c0,-66.423939 -54.803181,-120.224323 -122.46521,-120.224323z"/>
 </g>
</svg>