<svg width="200" height="200" xmlns="http://www.w3.org/2000/svg">

 <g>
  <title>background</title>
  <rect fill="none" id="canvas_background" height="402" width="582" y="-1" x="-1"/>
 </g>
 <g>
  <title>Layer 1</title>
  <path id="svg_2" fill="#5E889E" d="m94.756,163.967l0,-11.057c0,-0.618 -0.235,-1.234 -0.707,-1.704c-0.468,-0.471 -1.086,-0.706 -1.704,-0.706l-32.926,0c-0.62,0 -1.233,0.235 -1.706,0.706c-0.47,0.47 -0.704,1.086 -0.704,1.704l0,11.057l-12.92,7.138c-0.125,0.073 -0.238,0.175 -0.316,0.312c-0.081,0.135 -0.119,0.283 -0.119,0.429l0,1.57c0,0.216 0.083,0.432 0.248,0.597s0.381,0.248 0.597,0.248l62.768,0c0.218,0 0.434,-0.083 0.596,-0.248c0.168,-0.165 0.246,-0.381 0.246,-0.597l0,-1.57c0,-0.146 -0.037,-0.294 -0.116,-0.429c-0.079,-0.137 -0.188,-0.238 -0.32,-0.312l-12.917,-7.138z"/>
  <path id="svg_3" fill="#5E889E" d="m150.087,46.986c-1.114,-1.117 -2.581,-1.676 -4.044,-1.676l-140.321,0c-1.465,0 -2.929,0.559 -4.046,1.676c-1.118,1.119 -1.676,2.583 -1.676,4.047l0,90.831c0,1.466 0.558,2.931 1.676,4.049c1.117,1.117 2.582,1.675 4.046,1.675l140.321,0c1.463,0 2.93,-0.558 4.044,-1.675c1.12,-1.118 1.678,-2.583 1.678,-4.049l0,-90.831c0,-1.464 -0.558,-2.928 -1.678,-4.047zm-74.205,98.18c-1.396,0 -2.531,-1.135 -2.531,-2.532c0,-1.395 1.134,-2.529 2.531,-2.529s2.529,1.135 2.529,2.529c0,1.397 -1.133,2.532 -2.529,2.532zm65.986,-7.477l-131.971,0l0,-82.48l131.971,0l0,82.48z"/>
  <path id="svg_5" fill="#5e889e" d="m184.754,68.868l-28.738,0l0,72.995c0,2.667 -1.037,5.172 -2.926,7.055c-1.878,1.881 -4.385,2.92 -7.047,2.92l-11.276,0l0,8.699c0,2.215 1.8,4.013 4.013,4.013l51.592,0c2.212,0 4.01,-1.798 4.01,-4.013l0,-125.17c0,-2.213 -1.798,-4.01 -4.01,-4.01l-51.592,0c-2.213,0 -4.013,1.797 -4.013,4.01l0,5.692l6.426,0c-0.001,-0.027 -0.009,-0.049 -0.009,-0.074c0,-1.767 1.443,-3.211 3.209,-3.211l40.361,0c1.764,0 3.209,1.444 3.209,3.211c0,1.766 -1.445,3.209 -3.209,3.209l-31.467,0c1.544,1.633 2.481,3.696 2.685,5.916l28.782,0c1.764,0 3.209,1.446 3.209,3.212c0,1.765 -1.445,3.209 -3.209,3.209l-28.738,0l0,5.916l28.738,0c1.764,0 3.209,1.444 3.209,3.209c0,1.768 -1.445,3.212 -3.209,3.212zm-18.575,74.283c0,0.884 -0.725,1.606 -1.606,1.606c-0.88,0 -1.604,-0.723 -1.604,-1.606l0,-4.813c0,-0.883 0.725,-1.604 1.604,-1.604c0.882,0 1.606,0.722 1.606,1.604l0,4.813zm-1.607,-12.032c-2.657,0 -4.811,-2.159 -4.811,-4.816c0,-2.659 2.153,-4.813 4.811,-4.813c2.656,0 4.816,2.154 4.816,4.813c0.001,2.657 -2.159,4.816 -4.816,4.816z"/>
  <path id="svg_6" fill="#5E889E" d="m190.371,25.74l-51.592,0c-5.298,0 -9.63,4.331 -9.63,9.627l0,5.692l4.013,0l0,-5.692c0,-3.098 2.519,-5.617 5.617,-5.617l51.592,0c3.095,0 5.616,2.52 5.616,5.617l0,125.17c0,3.098 -2.521,5.617 -5.616,5.617l-51.592,0c-3.099,0 -5.617,-2.52 -5.617,-5.617l0,-8.699l-4.013,0l0,8.699c0,5.297 4.332,9.629 9.63,9.629l3.308,0l0,0.883c0,0.82 0.314,1.642 0.94,2.269c0.629,0.628 1.449,0.942 2.269,0.942l1.604,0c0.821,0 1.643,-0.314 2.269,-0.942c0.629,-0.627 0.94,-1.448 0.94,-2.269l0,-0.883l28.926,0l0,0.883c0,0.82 0.317,1.642 0.94,2.269c0.628,0.628 1.449,0.942 2.271,0.942l1.604,0c0.822,0 1.644,-0.314 2.27,-0.942c0.626,-0.627 0.94,-1.448 0.94,-2.269l0,-0.883l3.311,0c5.294,0 9.629,-4.332 9.629,-9.629l0,-125.17c0,-5.296 -4.335,-9.627 -9.629,-9.627z"/>
 </g>
</svg>