<svg width="32" height="32" xmlns="http://www.w3.org/2000/svg">
 <title/>

 <g>
  <title>background</title>
  <rect fill="none" id="canvas_background" height="402" width="582" y="-1" x="-1"/>
 </g>
 <g>
  <title>Layer 1</title>
  <path stroke="null" fill="#94ffaf" id="svg_1" d="m30.842118,15.21939l-15.336149,-10.903207a1.095439,1.090321 0 0 0 -1.730794,0.88316l0,7.228826l-11.414476,-8.111986a1.095439,1.090321 0 0 0 -1.730794,0.88316l0,21.806414a1.095439,1.090321 0 0 0 0.591537,0.970385a1.17212,1.166643 0 0 0 0.503902,0.119935a1.095439,1.090321 0 0 0 0.635355,-0.207161l11.414476,-8.111986l0,7.228826a1.095439,1.090321 0 0 0 0.591537,0.970385a1.17212,1.166643 0 0 0 0.503902,0.119935a1.095439,1.090321 0 0 0 0.635355,-0.207161l15.336149,-10.903207a1.095439,1.090321 0 0 0 0,-1.76632z"/>
 </g>
</svg>