<svg width="1024" height="1024" xmlns="http://www.w3.org/2000/svg">

 <g>
  <title>background</title>
  <rect fill="none" id="canvas_background" height="402" width="582" y="-1" x="-1"/>
 </g>
 <g>
  <title>Layer 1</title>
  <circle fill="#5e889e" id="svg_2" r="57.955" cy="604.712" cx="377.47"/>
  <circle fill="#5e889e" id="svg_3" r="57.955" cy="604.712" cx="646.53"/>
  <circle fill="#5e889e" id="svg_4" r="20.921" cy="391.712" cx="808.53"/>
  <circle fill="#5e889e" id="svg_5" r="20.921" cy="485.712" cx="808.53"/>
  <circle fill="#5e889e" id="svg_6" r="20.921" cy="438.712" cx="855.53"/>
  <circle fill="#5e889e" id="svg_7" r="20.921" cy="438.712" cx="761.53"/>
  <path fill="#5e889e" id="svg_8" d="m982.925,734.88l-11.468,-307.351c-0.063,-1.702 -0.396,-3.327 -0.946,-4.845c-4.428,-40.66 -24.113,-76.8 -53.196,-102.567c-3.642,-12.797 -7.841,-28.524 -8.606,-34.636c-4.246,-33.917 -28.84,-57.481 -59.808,-57.481l-84.29,0c-30.182,0 -54.184,22.792 -59.725,56.903c-0.677,4.169 -3.428,13.254 -6.617,23.097l-378.14,0c-2.518,-9.391 -4.72,-18.259 -5.253,-22.519c-4.246,-33.917 -28.84,-57.481 -59.808,-57.481l-84.29,0c-30.182,0 -54.184,22.792 -59.725,56.903c-1.179,7.26 -8.645,29.741 -13.771,44.3c-23.898,24.882 -39.862,57.402 -43.794,93.516c-0.55,1.517 -0.882,3.125 -0.945,4.826l-11.468,307.343c-0.007,0.199 -0.011,0.394 -0.011,0.593c0,60.989 33.267,101.024 91.27,109.843c5.314,0.808 10.577,1.21 15.792,1.21c34.455,0 66.698,-17.613 96.038,-52.521c25.388,-30.206 44.784,-68.675 59.257,-98.185c20.221,16.465 46,26.351 74.048,26.351c59.244,0 108.376,-44.089 116.331,-101.179l36.398,0c7.955,57.089 57.087,101.179 116.331,101.179c28.048,0 53.827,-9.887 74.048,-26.352c14.473,29.51 33.87,67.978 59.257,98.185c29.342,34.91 61.58,52.521 96.038,52.521c5.213,0 10.48,-0.403 15.793,-1.211c58.002,-8.818 91.269,-48.855 91.269,-109.845c0.002,-0.2 -0.002,-0.398 -0.009,-0.597zm-218.314,-474.88l84.29,0c16.822,0 26.212,14.732 28.056,29.456c0.18,1.436 0.464,3.178 0.822,5.038c-20.323,-9.332 -42.915,-14.494 -66.703,-14.494c-0.002,0 0.001,0 -0.002,0c-27.256,0 -53.471,6.652 -76.742,19.367c0.979,-3.645 1.739,-6.805 2.141,-9.277c3.616,-22.26 17.418,-30.09 28.138,-30.09zm-106.702,227.789c-3.764,-0.361 -7.559,-0.543 -11.379,-0.543c-59.443,0 -108.709,44.386 -116.412,101.754l-36.236,0c-7.703,-57.368 -56.969,-101.754 -116.412,-101.754c-3.82,0 -7.615,0.182 -11.379,0.543c4.764,-15.353 7.224,-31.427 7.224,-47.623c0,-37.864 -13.197,-72.699 -35.222,-100.166l347.705,0c-22.749,28.341 -35.112,63.301 -35.112,100.166c0,16.196 2.46,32.271 7.223,47.623zm-487.131,-227.789l84.29,0c16.822,0 26.212,14.732 28.056,29.456c0.251,2.009 0.699,4.436 1.28,7.221c-21.535,-10.767 -45.81,-16.87 -71.48,-16.87c-25.787,0 -50.166,6.11 -71.774,16.969c0.663,-2.621 1.183,-4.844 1.49,-6.734c3.616,-22.26 17.418,-30.042 28.138,-30.042zm48.889,513.423c-26.482,31.508 -53.486,44.676 -82.523,40.262c-20.704,-3.147 -36.656,-11.257 -47.413,-24.103c-11.012,-13.149 -16.618,-31.254 -16.666,-53.814l7.646,-204.909c28.943,42.062 77.408,69.698 132.213,69.698c16.197,0 32.271,-2.46 47.622,-7.224c-0.36,3.764 -0.542,7.559 -0.542,11.379c0,24.356 7.452,47.003 20.194,65.784c-1.01,2.056 -2.039,4.157 -3.096,6.316c-14.758,30.157 -33.125,67.688 -57.435,96.611zm157.803,-83.244c-47.126,0 -85.466,-38.34 -85.466,-85.467c0,-11.262 2.158,-22.208 6.413,-32.535c2.598,-6.302 0.916,-13.559 -4.188,-18.076c-2.997,-2.653 -6.786,-4.02 -10.608,-4.02c-2.687,0 -5.391,0.676 -7.843,2.057c-19.088,10.741 -40.822,16.419 -62.854,16.419c-70.795,0 -128.392,-57.596 -128.392,-128.391s57.597,-128.391 128.392,-128.391s128.391,57.596 128.391,128.391c0,22.03 -5.678,43.766 -16.42,62.854c-3.343,5.941 -2.555,13.348 1.964,18.451c4.519,5.105 11.774,6.784 18.076,4.188c10.329,-4.256 21.275,-6.414 32.535,-6.414c47.126,0 85.466,38.34 85.466,85.466c0,47.128 -38.34,85.468 -85.466,85.468zm269.06,0c-47.126,0 -85.466,-38.34 -85.466,-85.467c0,-47.126 38.34,-85.466 85.466,-85.466c11.26,0 22.206,2.158 32.535,6.414c6.3,2.598 13.557,0.916 18.076,-4.188c4.519,-5.104 5.307,-12.51 1.964,-18.451c-10.742,-19.089 -16.42,-40.824 -16.42,-62.854c0,-34.295 13.355,-66.536 37.605,-90.786c24.249,-24.25 56.491,-37.604 90.785,-37.604c29.427,0 56.567,9.958 78.245,26.672c0.029,0.097 0.06,0.202 0.082,0.276l0.199,-0.06c30.314,23.506 49.865,60.262 49.865,101.503c0,70.795 -57.597,128.391 -128.392,128.391c-22.031,0 -43.766,-5.678 -62.854,-16.419c-5.942,-3.345 -13.349,-2.555 -18.451,1.963c-5.104,4.518 -6.786,11.774 -4.188,18.076c4.255,10.327 6.413,21.273 6.413,32.535c0.002,47.125 -38.338,85.465 -85.464,85.465zm287.74,99.403c-10.757,12.846 -26.709,20.955 -47.412,24.103c-29.062,4.409 -56.042,-8.755 -82.524,-40.262c-24.31,-28.923 -42.677,-66.454 -57.436,-96.611c-1.057,-2.159 -2.086,-4.26 -3.096,-6.316c12.742,-18.781 20.194,-41.428 20.194,-65.784c0,-3.82 -0.182,-7.615 -0.542,-11.379c15.352,4.764 31.425,7.224 47.622,7.224c54.805,0 103.27,-27.636 132.213,-69.698l7.646,204.909c-0.047,22.56 -5.654,40.665 -16.665,53.814z"/>
  <path fill="#5e889e" id="svg_9" d="m609.471,425.783l-26.853,-11.949c-7.363,-3.283 -16.618,0.821 -16.618,7.386l0,23.898c0,6.565 9.255,10.669 16.618,7.386l26.828,-11.949c7.363,-3.283 7.388,-11.489 0.025,-14.772z"/>
  <path fill="#5e889e" id="svg_10" d="m463,428.355c0,-5.719 -4.636,-10.355 -10.355,-10.355l-33.289,0c-5.719,0 -10.355,4.636 -10.355,10.355l0,9.29c0,5.719 4.636,10.355 10.355,10.355l33.289,0c5.719,0 10.355,-4.636 10.355,-10.355l0,-9.29z"/>
  <circle fill="#5e889e" id="svg_11" r="24.457" cy="501.167" cx="512.167"/>
  <path fill="#5e889e" id="svg_12" d="m759.356,487c1.616,0 2.644,1.524 2.644,3.14l0,26.641c0,9.977 8.403,18.22 18.38,18.22l60.14,0c9.48,0 17.48,-7.839 17.48,-17.32l0,-27.54c0,-1.615 1.027,-3.14 2.644,-3.14l27.285,0c10.169,0 18.071,-8.062 18.071,-18.231l0,-60.437c0,-9.673 -7.499,-17.332 -17.172,-17.332l-28.185,0c-1.616,0 -2.644,-1.524 -2.644,-3.14l0,-26.938c0,-9.813 -8.271,-17.923 -18.084,-17.923l-60.435,0c-9.48,0 -17.48,7.839 -17.48,17.32l0,27.54c0,1.615 -1.027,3.14 -2.644,3.14l-27.285,0c-10.169,0 -18.071,8.062 -18.071,18.231l0,60.14c0,9.836 7.632,17.629 17.468,17.629l27.888,0zm-31.356,-17.629l0,-60.14c0,-2.407 1.664,-4.231 4.071,-4.231l27.285,0c9.336,0 16.644,-7.805 16.644,-17.14l0,-27.54c0,-1.762 1.72,-3.32 3.48,-3.32l60.436,0c2.059,0 4.084,1.864 4.084,3.923l0,26.938c0,9.335 7.308,17.14 16.644,17.14l28.185,0c1.953,0 3.172,1.379 3.172,3.332l0,60.437c0,2.407 -1.664,4.231 -4.071,4.231l-27.285,0c-9.336,0 -16.644,7.805 -16.644,17.14l0,27.54c0,1.762 -1.72,3.32 -3.48,3.32l-60.14,0c-2.219,0 -4.38,-2.001 -4.38,-4.22l0,-26.641c0,-9.335 -7.308,-17.14 -16.644,-17.14l-27.889,0c-2.08,0 -3.468,-1.548 -3.468,-3.629z"/>
  <path fill="#5e889e" id="svg_13" d="m291.828,391l-28.185,0c-1.616,0 -2.644,-1.524 -2.644,-3.14l0,-26.938c0,-9.813 -8.271,-17.923 -18.084,-17.923l-60.435,0c-9.48,0.001 -17.48,7.84 -17.48,17.321l0,27.54c0,1.615 -1.027,3.14 -2.644,3.14l-27.285,0c-10.169,0 -18.071,8.062 -18.071,18.231l0,60.14c0,9.836 7.632,17.629 17.468,17.629l27.889,0c1.616,0 2.644,1.524 2.644,3.14l0,26.641c0,9.977 8.403,18.22 18.38,18.22l60.14,0c9.48,0 17.48,-7.839 17.48,-17.32l0,-27.54c0,-1.615 1.027,-3.14 2.644,-3.14l27.285,0c10.169,0 18.071,-8.062 18.071,-18.231l0,-60.437c-0.001,-9.674 -7.5,-17.333 -17.173,-17.333zm3.172,77.769c0,2.407 -1.664,4.231 -4.071,4.231l-27.285,0c-9.336,0 -16.644,7.805 -16.644,17.14l0,27.54c0,1.762 -1.72,3.32 -3.48,3.32l-60.14,0c-2.219,0 -4.38,-2.001 -4.38,-4.22l0,-26.64c0,-9.335 -7.308,-17.14 -16.644,-17.14l-27.889,0c-2.08,0 -3.468,-1.548 -3.468,-3.629l0,-60.14c0,-2.407 1.664,-4.231 4.071,-4.231l27.285,0c9.336,0 16.644,-7.805 16.644,-17.14l0,-27.54c0,-1.762 1.72,-3.32 3.48,-3.32l60.436,0c2.059,0 4.084,1.864 4.084,3.923l0,26.938c0,9.335 7.308,17.14 16.644,17.14l28.185,0c1.953,0 3.172,1.379 3.172,3.332l0,60.436z"/>
  <path fill="#5e889e" id="svg_14" d="m219.924,454.149c-3.863,-4.281 -9.957,-4.285 -13.825,-0.01l-11.011,12.173c-1.973,2.181 -3.089,5.199 -3.089,8.355l0,20.685c0,6.384 4.476,11.647 9.997,11.647l22.007,0c5.521,0 9.996,-5.263 9.996,-11.647l0,-20.672c0,-3.151 -1.112,-6.166 -3.08,-8.346l-10.995,-12.185z"/>
  <path fill="#5e889e" id="svg_15" d="m206.076,422.912c3.864,4.281 9.957,4.285 13.825,0.009l11.01,-12.173c1.973,-2.181 3.089,-5.199 3.089,-8.355l0,-20.685c0,-6.384 -4.476,-11.709 -9.996,-11.709l-22.007,0c-5.521,0 -9.997,5.325 -9.997,11.709l0,20.672c0,3.151 1.113,6.166 3.08,8.346l10.996,12.186z"/>
  <path fill="#5e889e" id="svg_16" d="m197.391,431.63l-12.173,-10.776c-2.181,-1.973 -5.199,-2.854 -8.355,-2.854l-20.685,0c-6.384,0 -11.178,4.006 -11.178,9.527l0,22.007c0,5.521 4.794,10.466 11.178,10.466l20.672,0c3.151,0 6.166,-1.347 8.346,-3.315l12.186,-11.113c4.281,-3.863 4.285,-10.075 0.009,-13.942z"/>
  <path fill="#5e889e" id="svg_17" d="m269.822,418l-20.672,0c-3.151,0 -6.166,0.878 -8.346,2.845l-12.185,10.879c-4.281,3.864 -4.285,9.898 -0.009,13.766l12.173,11.216c2.181,1.973 5.199,3.294 8.355,3.294l20.685,0c6.384,0 11.178,-4.945 11.178,-10.466l0,-22.007c-0.001,-5.521 -4.795,-9.527 -11.179,-9.527z"/>
 </g>
</svg>