<svg width="32" height="32" xmlns="http://www.w3.org/2000/svg">
 <title/>
 <desc/>

 <g>
  <title>background</title>
  <rect fill="none" id="canvas_background" height="402" width="582" y="-1" x="-1"/>
 </g>
 <g>
  <title>Layer 1</title>
  <path stroke="#2afb7b" fill="#2afb7b" fill-opacity="0.3" id="high-five" d="m13.365591,29c3.805557,-0.00046 6.063043,-2.05111 7.847157,-5.01691c3.959724,-6.58237 6.795386,-9.59433 5.694959,-10.68737c-1.124143,-1.1166 -3.867159,1.3022 -5.950659,3.50263l0,-10.30525c0,-0.82921 -0.679759,-1.4931 -1.518291,-1.4931c-0.844372,0 -1.518291,0.66848 -1.518291,1.4931l0,9.5069l-1.012194,0l0,-11.5091c0,-0.81468 -0.679759,-1.4909 -1.518291,-1.4909c-0.844372,0 -1.518291,0.6675 -1.518291,1.4909l0,10.5091l-1.012194,0l0,-8.49629c0,-0.84173 -0.679759,-1.50371 -1.518291,-1.50371c-0.844372,0 -1.518291,0.67323 -1.518291,1.50371l0,9.49629l-1.012194,0l0,-6.50873c0,-0.82873 -0.679759,-1.49127 -1.518291,-1.49127c-0.844372,0 -1.518291,0.66766 -1.518291,1.49127l0,8.2631l0,3.74563c0,4.14214 3.398806,7.5 7.591457,7.5l0,0z"/>
 </g>
</svg>