<svg width="32" height="32" xmlns="http://www.w3.org/2000/svg">
 <title/>
 <desc/>

 <g>
  <title>background</title>
  <rect fill="none" id="canvas_background" height="402" width="582" y="-1" x="-1"/>
 </g>
 <g>
  <title>Layer 1</title>
  <path stroke="#2afb7b" fill="#2afb7b" fill-opacity="0.3" id="high-five" d="m19.62442,29c-3.75971,-0.00046 -5.99,-2.05111 -7.75262,-5.01691c-3.91202,-6.58237 -6.71352,-9.59433 -5.62635,-10.68737c1.1106,-1.1166 3.82057,1.3022 5.87897,3.50263l0,-10.30525c0,-0.82921 0.67157,-1.4931 1.5,-1.4931c0.8342,0 1.5,0.66848 1.5,1.4931l0,9.5069l1,0l0,-11.5091c0,-0.81468 0.67157,-1.4909 1.5,-1.4909c0.8342,0 1.5,0.6675 1.5,1.4909l0,10.5091l1,0l0,-8.49629c0,-0.84173 0.67157,-1.50371 1.5,-1.50371c0.8342,0 1.5,0.67323 1.5,1.50371l0,9.49629l1,0l0,-6.50873c0,-0.82873 0.67157,-1.49127 1.5,-1.49127c0.8342,0 1.5,0.66766 1.5,1.49127l0,8.2631l0,3.74563c0,4.14214 -3.35786,7.5 -7.5,7.5l0,0z"/>
 </g>
</svg>