<svg width="32" height="32" xmlns="http://www.w3.org/2000/svg">
 <title/>
 <desc/>

 <g>
  <title>background</title>
  <rect fill="none" id="canvas_background" height="402" width="582" y="-1" x="-1"/>
 </g>
 <g>
  <title>Layer 1</title>
  <path stroke="#323aff" fill="#323aff" fill-opacity="0.3" id="high-five" d="m19.038378,28.929069c-3.911273,-0.00046 -6.231471,-2.05111 -8.065145,-5.01691c-4.069722,-6.58237 -6.984157,-9.59433 -5.853161,-10.68737c1.155371,-1.1166 3.974586,1.3022 6.115964,3.50263l0,-10.30525c0,-0.82921 0.698642,-1.4931 1.560468,-1.4931c0.867829,0 1.560469,0.66848 1.560469,1.4931l0,9.5069l1.040312,0l0,-11.5091c0,-0.81468 0.698642,-1.4909 1.560468,-1.4909c0.867829,0 1.560469,0.6675 1.560469,1.4909l0,10.5091l1.040312,0l0,-8.49629c0,-0.84173 0.698642,-1.50371 1.560468,-1.50371c0.867828,0 1.560468,0.67323 1.560468,1.50371l0,9.49629l1.040313,0l0,-6.50873c0,-0.82873 0.698642,-1.49127 1.560468,-1.49127c0.867828,0 1.560468,0.66766 1.560468,1.49127l0,8.2631l0,3.74563c0,4.14214 -3.493222,7.5 -7.802341,7.5l0,0z"/>
 </g>
</svg>