<svg width="99" height="21" viewBox="0 0 99 21" fill="none" xmlns="http://www.w3.org/2000/svg">
<path d="M14.627 7.85547C14.627 8.4349 14.5553 8.95247 14.4121 9.4082C14.2689 9.86393 14.0736 10.2676 13.8262 10.6191C13.5853 10.9642 13.3053 11.2604 12.9863 11.5078C12.6673 11.7552 12.332 11.957 11.9805 12.1133C11.6354 12.2695 11.2839 12.3835 10.9258 12.4551C10.5742 12.5267 10.2422 12.5625 9.92969 12.5625H4.1875V10.0234H9.92969C10.2552 9.9974 10.5482 9.93229 10.8086 9.82812C11.0755 9.71745 11.3034 9.57096 11.4922 9.38867C11.681 9.20638 11.8275 8.98828 11.9316 8.73438C12.0358 8.47396 12.0879 8.18099 12.0879 7.85547V6.70312C12.0553 6.38411 11.987 6.09115 11.8828 5.82422C11.7786 5.55729 11.6354 5.32943 11.4531 5.14062C11.2773 4.95182 11.0625 4.80534 10.8086 4.70117C10.5547 4.59049 10.2617 4.53516 9.92969 4.53516H4.20703C3.86849 4.53516 3.61133 4.62305 3.43555 4.79883C3.25977 4.97461 3.17188 5.22852 3.17188 5.56055V16H0.632812V5.56055C0.632812 4.90951 0.75 4.35612 0.984375 3.90039C1.22526 3.44466 1.52148 3.07682 1.87305 2.79688C2.23112 2.51693 2.61849 2.3151 3.03516 2.19141C3.45182 2.0612 3.83594 1.99609 4.1875 1.99609H9.92969C10.5026 1.99609 11.0169 2.07096 11.4727 2.2207C11.9284 2.36393 12.3288 2.55924 12.6738 2.80664C13.0254 3.04753 13.3216 3.32747 13.5625 3.64648C13.8099 3.96549 14.0117 4.30078 14.168 4.65234C14.3307 4.9974 14.4479 5.34896 14.5195 5.70703C14.5911 6.05859 14.627 6.39062 14.627 6.70312V7.85547ZM25.7012 7.98242H19.9883C19.6432 7.98242 19.3828 8.07031 19.207 8.24609C19.0312 8.41536 18.9434 8.66602 18.9434 8.99805V16H16.4043V8.99805C16.4043 8.56185 16.4596 8.17122 16.5703 7.82617C16.681 7.48112 16.8275 7.17839 17.0098 6.91797C17.1986 6.65104 17.4134 6.42643 17.6543 6.24414C17.8952 6.05534 18.1458 5.90234 18.4062 5.78516C18.6732 5.66797 18.9401 5.58333 19.207 5.53125C19.4805 5.47266 19.7344 5.44336 19.9688 5.44336H25.7012V7.98242ZM38.6992 8.93945C38.6992 9.29102 38.6374 9.67188 38.5137 10.082C38.39 10.4857 38.1882 10.8633 37.9082 11.2148C37.6348 11.5599 37.2734 11.8496 36.8242 12.084C36.3815 12.3184 35.8411 12.4355 35.2031 12.4355H30.623V10.0234H35.2031C35.5482 10.0234 35.8151 9.91927 36.0039 9.71094C36.1927 9.49609 36.2871 9.23242 36.2871 8.91992C36.2871 8.58789 36.1797 8.32747 35.9648 8.13867C35.7565 7.94987 35.5026 7.85547 35.2031 7.85547H30.623C30.278 7.85547 30.0111 7.96289 29.8223 8.17773C29.6335 8.38607 29.5391 8.64648 29.5391 8.95898V12.5039C29.5391 12.8424 29.6432 13.1061 29.8516 13.2949C30.0664 13.4837 30.3301 13.5781 30.6426 13.5781H35.2031V16H30.623C30.2715 16 29.8906 15.9382 29.4805 15.8145C29.0768 15.6908 28.6992 15.4922 28.3477 15.2188C28.0026 14.9388 27.7129 14.5775 27.4785 14.1348C27.2441 13.6855 27.127 13.1419 27.127 12.5039V8.93945C27.127 8.58789 27.1888 8.21029 27.3125 7.80664C27.4362 7.39648 27.6348 7.01888 27.9082 6.67383C28.1882 6.32227 28.5495 6.0293 28.9922 5.79492C29.4414 5.56055 29.985 5.44336 30.623 5.44336H35.2031C35.5547 5.44336 35.9323 5.50521 36.3359 5.62891C36.7461 5.7526 37.1237 5.95443 37.4688 6.23438C37.8203 6.50781 38.1133 6.86914 38.3477 7.31836C38.582 7.76107 38.6992 8.30143 38.6992 8.93945ZM50.6133 12.4355C50.6133 12.8717 50.5579 13.2656 50.4473 13.6172C50.3366 13.9622 50.1901 14.2682 50.0078 14.5352C49.8255 14.7956 49.6139 15.0202 49.373 15.209C49.1322 15.3913 48.8783 15.541 48.6113 15.6582C48.3509 15.7754 48.084 15.8633 47.8105 15.9219C47.5436 15.974 47.2897 16 47.0488 16H40.1738V13.4609H47.0293C47.3743 13.4609 47.6348 13.373 47.8105 13.1973C47.9863 13.0215 48.0742 12.7676 48.0742 12.4355C48.0417 11.7585 47.6999 11.4199 47.0488 11.4199H43.1133C42.5534 11.4199 42.0781 11.3223 41.6875 11.127C41.2969 10.9316 40.9779 10.6875 40.7305 10.3945C40.4896 10.1016 40.3138 9.78581 40.2031 9.44727C40.099 9.10872 40.0469 8.79297 40.0469 8.5C40.0469 7.93359 40.1478 7.45833 40.3496 7.07422C40.5514 6.68359 40.8053 6.36784 41.1113 6.12695C41.4173 5.88607 41.7493 5.71354 42.1074 5.60938C42.4655 5.4987 42.8008 5.44336 43.1133 5.44336H49.3535V7.98242H43.1328C43.0026 7.98242 42.8984 7.9987 42.8203 8.03125C42.7487 8.05729 42.6934 8.09635 42.6543 8.14844C42.6217 8.19401 42.6022 8.24609 42.5957 8.30469C42.5892 8.35677 42.5859 8.40885 42.5859 8.46094C42.5924 8.5651 42.612 8.64648 42.6445 8.70508C42.6771 8.76367 42.7161 8.80599 42.7617 8.83203C42.8138 8.85807 42.8691 8.87435 42.9277 8.88086C42.9928 8.88086 43.0547 8.88086 43.1133 8.88086H47.0488C47.6999 8.88086 48.2533 8.99805 48.709 9.23242C49.1647 9.4668 49.5326 9.76302 49.8125 10.1211C50.0924 10.4727 50.2943 10.8568 50.418 11.2734C50.5482 11.6901 50.6133 12.0775 50.6133 12.4355ZM61.8242 7.98242H57.3906V16H54.8223V7.98242H51.5215V5.44336H54.8223V1.99609H57.3906V5.44336H61.8242V7.98242ZM66.0723 3.27539H63.5332V0.980469H66.0723V3.27539ZM66.0723 16H63.5332V5.44336H66.0723V16ZM79.998 17.0156C79.998 17.4518 79.9427 17.8424 79.832 18.1875C79.7214 18.5391 79.5749 18.8451 79.3926 19.1055C79.2103 19.3724 78.9987 19.597 78.7578 19.7793C78.5169 19.9681 78.263 20.1211 77.9961 20.2383C77.7357 20.3555 77.4688 20.4401 77.1953 20.4922C76.9284 20.5508 76.6745 20.5801 76.4336 20.5801H71.8535V18.041H76.4336C76.7786 18.041 77.0358 17.9531 77.2051 17.7773C77.3743 17.6016 77.459 17.3477 77.459 17.0156V8.99805C77.459 8.66602 77.3743 8.41536 77.2051 8.24609C77.0358 8.07031 76.7786 7.98242 76.4336 7.98242H71.8535C71.541 7.98242 71.2936 8.08008 71.1113 8.27539C70.929 8.46419 70.8379 8.70508 70.8379 8.99805V12.4355C70.8379 12.7676 70.9258 13.0215 71.1016 13.1973C71.2773 13.373 71.5345 13.4609 71.873 13.4609H76.4336V16H71.8535C71.6126 16 71.3587 15.974 71.0918 15.9219C70.8249 15.8633 70.5579 15.7754 70.291 15.6582C70.0306 15.541 69.7799 15.3913 69.5391 15.209C69.2982 15.0202 69.0866 14.7956 68.9043 14.5352C68.722 14.2682 68.5755 13.9622 68.4648 13.6172C68.3542 13.2656 68.2988 12.8717 68.2988 12.4355V8.99805C68.2988 8.75716 68.3249 8.50326 68.377 8.23633C68.4355 7.9694 68.5234 7.70573 68.6406 7.44531C68.7578 7.17839 68.9076 6.92448 69.0898 6.68359C69.2786 6.44271 69.5033 6.23112 69.7637 6.04883C70.0306 5.86654 70.3366 5.72005 70.6816 5.60938C71.0267 5.4987 71.4173 5.44336 71.8535 5.44336H76.4336C76.6745 5.44336 76.9284 5.47266 77.1953 5.53125C77.4688 5.58333 77.7357 5.66797 77.9961 5.78516C78.263 5.90234 78.5169 6.05534 78.7578 6.24414C78.9987 6.42643 79.2103 6.65104 79.3926 6.91797C79.5749 7.17839 79.7214 7.48112 79.832 7.82617C79.9427 8.17122 79.998 8.56185 79.998 8.99805V17.0156ZM84.9004 3.27539H82.3613V0.980469H84.9004V3.27539ZM84.9004 16H82.3613V5.44336H84.9004V16ZM98.8262 12.4355C98.8262 12.8717 98.7708 13.2656 98.6602 13.6172C98.5495 13.9622 98.403 14.2682 98.2207 14.5352C98.0384 14.7956 97.8268 15.0202 97.5859 15.209C97.3451 15.3913 97.0911 15.541 96.8242 15.6582C96.5638 15.7754 96.2969 15.8633 96.0234 15.9219C95.7565 15.974 95.5026 16 95.2617 16H90.6816C90.3301 16 89.946 15.9382 89.5293 15.8145C89.1126 15.6908 88.7253 15.4889 88.3672 15.209C88.0156 14.9225 87.7194 14.5547 87.4785 14.1055C87.2441 13.6497 87.127 13.0931 87.127 12.4355V8.99805C87.127 8.34701 87.2441 7.79688 87.4785 7.34766C87.7194 6.89193 88.0156 6.52409 88.3672 6.24414C88.7253 5.95768 89.1126 5.7526 89.5293 5.62891C89.946 5.50521 90.3301 5.44336 90.6816 5.44336H95.2617C95.9128 5.44336 96.4661 5.56055 96.9219 5.79492C97.3776 6.0293 97.7454 6.32552 98.0254 6.68359C98.3053 7.03516 98.5072 7.41927 98.6309 7.83594C98.7611 8.2526 98.8262 8.63997 98.8262 8.99805V12.4355ZM96.2871 9.01758C96.2871 8.66602 96.1992 8.4056 96.0234 8.23633C95.8477 8.06706 95.5938 7.98242 95.2617 7.98242H90.7012C90.3626 7.98242 90.1055 8.07031 89.9297 8.24609C89.7539 8.41536 89.666 8.66602 89.666 8.99805V12.4355C89.666 12.7676 89.7539 13.0215 89.9297 13.1973C90.1055 13.373 90.3626 13.4609 90.7012 13.4609H95.2617C95.6068 13.4609 95.8639 13.373 96.0332 13.1973C96.2025 13.0215 96.2871 12.7676 96.2871 12.4355V9.01758Z" fill="white"/>
</svg>
