<svg width="512" height="512" xmlns="http://www.w3.org/2000/svg">

 <g>
  <title>background</title>
  <rect fill="none" id="canvas_background" height="402" width="582" y="-1" x="-1"/>
 </g>
 <g>
  <title>Layer 1</title>
  <path stroke="null" fill="#5e889e" id="svg_2" fill-rule="evenodd" clip-rule="evenodd" d="m337.492274,475.750028c-2.497086,0 -4.480332,-1.79226 -4.480332,-4.04655c0,-2.203083 1.981958,-4.04655 4.480332,-4.04655l136.242532,0c2.497086,0 4.480332,1.843467 4.480332,4.04655c0,2.25429 -1.981958,4.04655 -4.480332,4.04655l-136.242532,0zm103.20604,-182.74299c1.811965,-1.586266 4.64131,-1.586266 6.345098,0c1.811965,1.58743 1.811965,4.147801 0,5.736395l-61.776812,55.878934c-1.813253,1.586266 -4.650325,1.586266 -6.345098,0c-1.82098,-1.588594 -1.82098,-4.148965 0,-5.736395l61.776812,-55.878934zm4.870542,33.649094c1.813253,-1.58743 4.650325,-1.58743 6.345098,0c1.76174,1.588594 1.76174,4.148965 0,5.736395l-85.23835,77.03109c-1.693486,1.58743 -4.589797,1.58743 -6.34381,0c-1.703788,-1.588594 -1.703788,-4.148965 0,-5.737559l85.237062,-77.029926zm2.381183,26.376477c1.751438,-1.535059 4.647749,-1.535059 6.34381,0c1.76174,1.588594 1.76174,4.148965 0,5.736395l-61.827037,55.878934c-1.76174,1.58743 -4.591085,1.58743 -6.354113,0c-1.754013,-1.58743 -1.754013,-4.147801 0,-5.736395l61.83734,-55.878934zm-200.177734,-157.644371c1.701213,-1.537386 4.589797,-1.537386 6.352825,0c1.754013,1.586266 1.754013,4.199008 0,5.736395l-199.4411,180.231498c-0.169992,0.20483 -0.397937,0.308408 -0.566642,0.460867l0,9.832988l243.299159,0l0,-171.370287c0,-3.739305 1.703788,-7.118995 4.42238,-9.576951l0.119767,-0.153622l0.169992,-0.102415l0.109465,-0.102415l0,0l0.169992,-0.102415l0,0l0.109465,-0.102415l0.11848,-0.154786l0,0l0.110753,-0.102415l0,0l0.229232,-0.101251l0.110753,-0.102415l0,0l0.11848,-0.052371l0,0l0.110753,-0.102415l0,0l0.117192,-0.051207l0,-0.051207l0.051513,0l0,0l0.060528,-0.051207l0,-0.051207l0.108177,0l0,0l0,-0.051207l0.060528,0l0,-0.051207l0.05924,0l0,0l0.051513,0l0.057952,-0.051207l0,0l0.060528,-0.051207l0.050225,0l0,-0.051207l0,0l0.11848,-0.052371l0,0l0,0l0.052801,-0.050044l0.057952,0l0,-0.052371l0.05924,0l0.060528,-0.050044l0,0l0.050225,0l0.05924,-0.052371l0,0l0.05924,-0.050044l0.050225,0l0,0l0.060528,-0.051207l0.05924,0l0,-0.052371l0,0l0.109465,0l0,-0.050044l0.05924,0l0.17128,-0.102415l0,0l0.109465,-0.102415l0.338697,-0.154786l0,0l0.229232,-0.051207l0.11848,-0.051207l0,0l0.169992,-0.102415l0.169992,-0.051207l0,0l0.109465,-0.051207l0,-0.051207l0,0l0.11204,0l0.057952,-0.051207l0.05924,0l0,0l0.110753,-0.051207l0,-0.051207l0.05924,0l0.338697,-0.102415l0.05924,0l0.051513,-0.051207l0.05924,0l0,0l0.110753,-0.051207l0,0l0,0l0.229232,-0.052371l0.168705,-0.050044l0.168705,-0.052371l0,0l0.17128,-0.102415l0,0l0.177719,0l0,0l0.169992,-0.050044l0.050225,0l0.11848,-0.052371l0,0l0.169992,-0.051207l0.051513,0l0.11848,-0.051207l0.05924,0l0.169992,0l0,0l0.168705,-0.051207l0,0l0.168705,-0.051207l0,0l0.17128,-0.051207l0.050225,0l0.179007,0l0.168705,-0.051207l0.17128,0l0.050225,0l0.11848,-0.052371l0.050225,0l0.177719,0l0,0l0.169992,-0.050044l0,0l0.169992,0l0,0l0.220218,0l0,0l0.179007,-0.051207l0,0l0.168705,0l0.220218,0l0.169992,0l0.179007,0l0.21893,0l0,0l0.229232,0l59.166397,0l0,-162.611491l-317.55754,0l0,326.301829l193.654916,-175.007178zm21.023691,-54.186761c1.76174,-1.588594 4.591085,-1.588594 6.354113,0c1.751438,1.58743 1.751438,4.146637 0,5.735231l-143.671976,129.83525c-1.701213,1.586266 -4.539572,1.586266 -6.352825,0c-1.693486,-1.58743 -1.693486,-4.148965 0,-5.736395l143.670689,-129.834086zm19.500198,-49.937709c1.752725,-1.58743 4.589797,-1.58743 6.293585,0c1.813253,1.588594 1.813253,4.147801 0,5.736395l-115.73397,104.63538c-1.754013,1.588594 -4.591085,1.588594 -6.345098,0c-1.76174,-1.58743 -1.76174,-4.199008 0,-5.736395l115.785483,-104.63538zm-66.0292,340.336153c-2.379895,-2.151875 -5.716641,-3.482105 -9.402387,-3.482105c-3.632945,0 -6.920754,1.331393 -9.299361,3.482105c-2.431408,2.203083 -3.905964,5.173113 -3.905964,8.450388c0,3.329646 1.474556,6.30084 3.905964,8.503923c2.379895,2.099504 5.666416,3.482105 9.299361,3.482105c3.685746,0 7.02378,-1.3826 9.402387,-3.482105c2.381183,-2.203083 3.854451,-5.173113 3.854451,-8.503923c0,-3.276111 -1.474556,-6.247305 -3.854451,-8.450388zm-9.403675,-11.625248c6.117154,0 11.672817,2.253126 15.7565,5.890017c3.965203,3.636891 6.454563,8.656382 6.454563,14.185619c0,5.5851 -2.490647,10.551056 -6.454563,14.239154c-4.082395,3.584519 -9.639346,5.83881 -15.7565,5.83881c-6.123593,0 -11.679256,-2.25429 -15.644459,-5.83881c-4.082395,-3.688098 -6.573043,-8.655218 -6.573043,-14.239154c0,-5.530401 2.490647,-10.548729 6.573043,-14.185619c3.965203,-3.636891 9.520867,-5.890017 15.644459,-5.890017zm180.450879,-182.230915c-2.491935,0 -4.48162,-1.791096 -4.48162,-4.045386s1.990973,-4.047714 4.48162,-4.047714l24.598684,0c2.490647,0 4.472605,1.793424 4.472605,4.047714s-1.981958,4.045386 -4.472605,4.045386l-24.598684,0zm15.416515,250.810453c-0.795874,-0.716904 -1.931733,-1.127727 -3.117817,-1.127727c-1.195099,0 -2.321943,0.410823 -3.058577,1.07652c-0.794586,0.71574 -1.304563,1.741052 -1.304563,2.816408c0,1.07652 0.509977,2.049461 1.304563,2.766364c0.736634,0.718068 1.863478,1.177771 3.058577,1.177771c1.186084,0 2.321943,-0.459703 3.117817,-1.177771c0.735346,-0.716904 1.244036,-1.689845 1.244036,-2.766364c0,-1.075356 -0.50869,-2.048297 -1.244036,-2.765201zm-3.117817,-9.270871c3.684458,0 7.030219,1.332557 9.462915,3.534476c2.379895,2.150712 3.853163,5.173113 3.853163,8.501596c0,3.329646 -1.474556,6.30084 -3.853163,8.502759c-2.491935,2.150712 -5.777169,3.533312 -9.462915,3.533312s-6.972267,-1.3826 -9.41269,-3.533312c-2.43012,-2.151875 -3.903388,-5.171949 -3.903388,-8.502759c0,-3.277275 1.474556,-6.299676 3.903388,-8.501596l0.060528,-0.052371c2.440422,-2.150712 5.728231,-3.482105 9.352162,-3.482105zm-29.358474,-264.482834l-0.110753,0l-63.649305,0l-0.108177,0l-0.060528,0l-0.060528,0l-0.108177,0l0,0l-0.110753,0l-0.060528,0l0,0l-0.05924,0.051207l0,0l-0.109465,0l-0.05924,0l-0.060528,0l0,0l-0.109465,0l0,0l0,0l0,0l-0.110753,0.050044l-0.05924,0l0,0l-0.05924,0l-0.110753,0l0,0l-0.05924,0.051207l0,0l-0.05924,0l0,0l-0.110753,0l-0.057952,0.051207l0,0l-0.391498,0.102415l0,0l-0.117192,0l0,0l-0.060528,0.051207l-0.050225,0l0,0l-0.060528,0l-0.057952,0l0,0.051207l-0.050225,0l-0.060528,0l0,0l-0.060528,0.051207l-0.046362,0l0,0.052371l-0.11848,0l0,0l-0.050225,0.050044l0,0l-0.060528,0l-0.057952,0.052371l0,0l-0.060528,0.050044l0,0l-0.44945,0.205993l0,0c-0.338697,0.205993 -0.677394,0.460867 -1.016091,0.716904c-0.119767,0.205993 -0.349,0.359616 -0.455889,0.512074l-0.060528,0.051207l0,0l-0.050225,0.050044l0,0.051207l-0.11848,0.050044l0,0.052371l0,0.051207l-0.052801,0l-0.057952,0.051207l0,0l0,0.051207l0,0l0,0.051207l0,0.051207l-0.11848,0l0,0.102415l0,0l0,0.051207l0,0l-0.110753,0.051207l0,0l0,0.052371l0,0.051207l-0.05924,0.051207l-0.051513,0.051207l0,0.102415l-0.05924,0.051207l0,0l-0.05924,0.051207l0,0.050044l0,0l0,0.052371l0,0l-0.050225,0.050044l0,0.052371l-0.05924,0.050044l0,0.052371l0,0.050044l-0.060528,0.052371l-0.050225,0.102415l0,0l0,0.051207l0,0.051207l0,0.052371l-0.05924,0.102415l-0.05924,0.051207l0,0.051207l0,0.102415l0,0.050044l0,0.051207l-0.051513,0.051207l0,0.102415l0,0.052371l-0.05924,0.050044l0,0.102415l0,0.052371l0,0.050044l0,0.052371l0,0.102415l0,0.052371l-0.05924,0.050044l0,0.102415l0,0.052371l0,0.050044l0,0.102415l0,0.051207l0,0.102415l0,175.469208l0,0.102415c0,34.982815 0,69.963302 0,104.943789c0,1.485015 0.677394,2.868779 1.76174,3.842884c1.126844,1.022985 2.600112,1.637474 4.302613,1.637474l186.295015,0c1.643261,0 3.117817,-0.614489 4.242085,-1.637474c1.076619,-0.974105 1.763028,-2.356705 1.763028,-3.842884l0,-242.308857l-178.07356,0c-2.491935,0 -4.473893,-1.844631 -4.473893,-4.04655c0,-2.25429 1.981958,-4.097757 4.473893,-4.097757l178.076136,0l0,-30.064575c0,-1.536223 -0.686409,-2.867616 -1.763028,-3.892928c-1.124268,-0.971777 -2.598824,-1.586266 -4.242085,-1.586266l-76.745165,0l-0.109465,0l-45.681615,0l0,0.001164zm-326.618654,-178.798854l326.50919,0c2.43012,0 4.472605,1.79226 4.472605,4.04655l0,166.659204l36.838143,0l0,-171.883525c0,-8.296766 -3.793923,-15.877792 -9.859564,-21.306942c-6.005113,-5.479194 -14.392697,-8.912419 -23.573578,-8.912419l-342.314627,0c-9.182169,0 -17.51824,3.433225 -23.582593,8.912419c-6.064353,5.430314 -9.800324,13.010176 -9.800324,21.306942l0,408.915691c0,8.296766 3.795211,15.826584 9.800324,21.305778c6.064353,5.480358 14.400423,8.861211 23.582593,8.861211l255.709898,0l0,-74.111103l-247.782067,0c-2.490647,0 -4.531845,-1.844631 -4.531845,-4.047714l0,-355.700707c0,-2.25429 2.041198,-4.045386 4.531845,-4.045386z"/>
 </g>
</svg>