<svg width="300" height="300" xmlns="http://www.w3.org/2000/svg">

 <g>
  <title>background</title>
  <rect fill="none" id="canvas_background" height="402" width="582" y="-1" x="-1"/>
 </g>
 <g>
  <title>Layer 1</title>
  <path id="svg_1" fill="#003f7f" d="m286.041841,33.773159l-269.242,0c-6.218,0 -11.258,4.922 -11.258,10.992l0,153.895l291.757,0l0,-153.895c0.001,-6.07 -5.041,-10.992 -11.257,-10.992z"/>
  <path id="svg_2" fill="#DBDFE2" d="m4.925,199.276l0,16.03c0,6.07 5.04,10.992 11.258,10.992l269.242,0c6.216,0 11.258,-4.922 11.258,-10.992l0,-16.03l-291.758,0z"/>
  <path id="svg_3" fill="#D0D1D1" d="m187.021,229.53c-0.076,-1.362 -0.122,-2.469 -0.15,-3.231l-72.135,0c-0.039,1.044 -0.112,2.736 -0.246,4.837l-4.901,26.769l-10.16,0l0,6.412l102.75,0l0,-6.412l-9.961,0l-5.197,-28.375z"/>
  <rect id="svg_5" y="47.52" x="17.596" width="266.416" height="139.848" fill="#fff"/>
  <circle id="svg_6" r="3.053" fill="#DCDFE2" cy="41.718" cx="150.804"/>
  <circle id="svg_7" r="7.363" fill="#A7A9AC" cy="212.788" cx="150.804"/>
 </g>
</svg>