<svg width="48" height="48" xmlns="http://www.w3.org/2000/svg" clip-rule="evenodd">

 <g>
  <title>background</title>
  <rect fill="none" id="canvas_background" height="402" width="582" y="-1" x="-1"/>
 </g>
 <g>
  <title>Layer 1</title>
  <path fill="#5e889e" stroke="null" id="svg_1" d="m0.491908,36.788404l0,-25.397787c0,-1.84981 1.567258,-3.351812 3.497436,-3.351812l40.048295,0c1.927866,0 3.499747,1.499786 3.499747,3.351812l0,25.397787c0,1.850918 -1.56957,3.351812 -3.499747,3.351812l-40.048295,0c-1.930178,0 -3.497436,-1.500894 -3.497436,-3.351812zm44.830975,0l0,-25.397787c0,-0.676787 -0.57443,-1.229515 -1.285244,-1.229515l-40.048295,0c-0.708502,0 -1.284088,0.550512 -1.284088,1.229515l0,25.397787c0,0.677895 0.575586,1.230622 1.284088,1.230622l40.048295,0c0.708502,0 1.285244,-0.552728 1.285244,-1.230622z"/>
  <path fill="#5e889e" id="svg_2" d="m6.773,13.589c0,-0.507 0.413,-0.919 0.92,-0.919c0.506,0 0.917,0.412 0.917,0.919c0,0.504 -0.411,0.917 -0.917,0.917c-0.507,0 -0.92,-0.413 -0.92,-0.917zm2.6,0c0,-0.507 0.412,-0.919 0.917,-0.919c0.507,0 0.92,0.412 0.92,0.919c0,0.504 -0.413,0.917 -0.92,0.917c-0.505,0 -0.917,-0.413 -0.917,-0.917zm2.599,0c0,-0.507 0.413,-0.919 0.917,-0.919c0.507,0 0.919,0.412 0.919,0.919c0,0.504 -0.412,0.917 -0.919,0.917c-0.504,0 -0.917,-0.413 -0.917,-0.917z"/>
  <path fill="#5e889e" id="svg_3" d="m33.179,22.397l-0.153,-0.654c-0.172,-0.051 -0.336,-0.119 -0.492,-0.201l-0.638,0.395c-0.166,0.104 -0.359,0.136 -0.5,0l-0.29,-0.294c-0.138,-0.136 -0.098,-0.321 0,-0.497l0.394,-0.641c-0.106,-0.198 -0.189,-0.413 -0.24,-0.641l-0.613,-0.146c-0.191,-0.043 -0.353,-0.158 -0.353,-0.352l0,-0.412c0,-0.194 0.162,-0.296 0.353,-0.354l0.704,-0.163l0.2,-0.419c-0.115,-0.185 -0.23,-0.373 -0.342,-0.558c-0.107,-0.166 -0.139,-0.362 0,-0.498l0.291,-0.292c0.136,-0.138 0.324,-0.095 0.498,0l0.598,0.371l0.404,-0.166c0.055,-0.221 0.115,-0.443 0.179,-0.662c0.057,-0.191 0.157,-0.353 0.354,-0.353l0.412,0c0.194,0 0.308,0.162 0.353,0.353l0.166,0.66l0.487,0.201c0.176,-0.104 0.35,-0.203 0.527,-0.301c0.176,-0.096 0.361,-0.138 0.497,0l0.294,0.291c0.138,0.136 0.104,0.332 0,0.498l-0.309,0.517l0.156,0.33c0.255,0.064 0.498,0.128 0.714,0.191c0.192,0.056 0.354,0.158 0.354,0.354l0,0.412c0,0.194 -0.162,0.307 -0.354,0.352l-0.618,0.157l-0.194,0.553c0.121,0.203 0.238,0.409 0.353,0.616c0.098,0.174 0.139,0.359 0,0.498l-0.292,0.291c-0.138,0.138 -0.332,0.104 -0.497,0l-0.564,-0.334c-0.177,0.104 -0.367,0.185 -0.566,0.244l-0.154,0.654c-0.045,0.191 -0.157,0.353 -0.353,0.353l-0.412,0c-0.195,0 -0.297,-0.162 -0.354,-0.353zm1.821,-3.092c0,-0.696 -0.566,-1.262 -1.262,-1.262c-0.695,0 -1.261,0.566 -1.261,1.262c0,0.696 0.566,1.261 1.261,1.261c0.696,0 1.262,-0.565 1.262,-1.261z"/>
  <path fill="#5e889e" id="svg_4" d="m30.612,32.37c0,-0.291 0.239,-0.531 0.533,-0.531l5.119,0c0.293,0 0.533,0.24 0.533,0.531c0,0.294 -0.24,0.533 -0.533,0.533l-5.119,0c-0.294,0 -0.533,-0.239 -0.533,-0.533zm-0.023,-1.928c0,-0.291 0.238,-0.532 0.532,-0.532l7.261,0c0.292,0 0.532,0.241 0.532,0.532c0,0.295 -0.24,0.533 -0.532,0.533l-7.261,0c-0.294,0 -0.532,-0.238 -0.532,-0.533zm0.023,-2.38c0,-0.292 0.239,-0.533 0.533,-0.533l5.119,0c0.293,0 0.533,0.241 0.533,0.533c0,0.293 -0.24,0.531 -0.533,0.531l-5.119,0c-0.294,0 -0.533,-0.238 -0.533,-0.531zm-0.023,-1.929c0,-0.291 0.238,-0.531 0.532,-0.531l7.261,0c0.292,0 0.532,0.24 0.532,0.531c0,0.294 -0.24,0.532 -0.532,0.532l-7.261,0c-0.294,0 -0.532,-0.238 -0.532,-0.532z"/>
  <path fill="#5e889e" id="svg_5" d="m7.318,32.37c0,-0.291 0.239,-0.531 0.532,-0.531l16.966,0c0.292,0 0.532,0.24 0.532,0.531c0,0.294 -0.24,0.533 -0.532,0.533l-16.966,0c-0.293,0 -0.532,-0.239 -0.532,-0.533z"/>
  <path fill="#5e889e" id="svg_6" d="m12.459,30.086c1.186,0 2.153,0.967 2.153,2.153c0,1.186 -0.967,2.153 -2.153,2.153c-1.186,0 -2.153,-0.967 -2.153,-2.153c0,-1.186 0.967,-2.153 2.153,-2.153z"/>
  <path fill="#5e889e" id="svg_7" d="m7.272,26.900658l0,-9.276l18.119,0l0,9.276l-18.119,0zm17.054,-1.064l0,-7.148l-15.991,0l0,7.148l15.991,0z"/>
  <path fill="#5e889e" id="Group_9" d="m10.304,24.712l0,-1.964l1.968,0l0,1.964l-1.968,0zm3.364,0l0,-1.964l1.964,0l0,1.964l-1.964,0zm3.365,0l0,-1.964l1.961,0l0,1.964l-1.961,0zm3.361,0l0,-1.964l1.969,0l0,1.964l-1.969,0zm-10.09,-3.137l0,-1.966l1.968,0l0,1.966l-1.968,0zm3.364,0l0,-1.966l1.964,0l0,1.966l-1.964,0zm3.365,0l0,-1.966l1.961,0l0,1.966l-1.961,0zm3.361,0l0,-1.966l1.969,0l0,1.966l-1.969,0z"/>
 </g>
</svg>