<svg width="150" height="150" xmlns="http://www.w3.org/2000/svg">

 <g>
  <title>background</title>
  <rect fill="none" id="canvas_background" height="402" width="582" y="-1" x="-1"/>
 </g>
 <g>
  <title>Layer 1</title>
  <circle id="svg_2" r="75" opacity="0.2" fill="#52C6D8" cy="75.013" cx="75.005"/>
  <path id="svg_3" opacity="0.2" fill="#52C6D8" d="m75.005,0.013l0,150c41.422,0 75,-33.579 75,-75.001c0,-41.42 -33.578,-74.999 -75,-74.999z"/>
  <circle id="svg_4" r="65.487" fill="#52C6D8" cy="75.013" cx="75.005"/>
  <path id="svg_5" fill="#4DB8C9" d="m75.005,9.525l0,130.975c36.168,0 65.488,-29.319 65.488,-65.488c0,-36.167 -29.32,-65.487 -65.488,-65.487z"/>
  <path id="svg_7" fill="#4DB8C9" d="m9.591,72.086c-0.043,0.971 -0.074,1.945 -0.074,2.926c0,36.169 29.32,65.488 65.488,65.488l0,-5.852c-35.188,0 -63.881,-27.753 -65.414,-62.562z"/>
  <path id="svg_8" fill="#47ACBC" d="m140.419,72.086c-1.531,34.809 -30.227,62.562 -65.414,62.562l0,5.852c36.168,0 65.488,-29.319 65.488,-65.488c0,-0.981 -0.031,-1.955 -0.074,-2.926z"/>
  <path id="svg_10" fill="#FFFFFF" d="m50.175,114.25c1.879,0.334 4.098,-0.077 6.471,-1.355l41.613,-22.406l-12.106,-12.05l-35.978,35.811z"/>
  <path id="svg_11" fill="#FFFFFF" d="m46.083,38.555c-1.039,1.479 -1.637,3.514 -1.637,6.021l0,61.031c0,2.442 0.566,4.436 1.553,5.902l36.691,-36.518l-36.607,-36.436z"/>
  <path id="svg_12" fill="#FFFFFF" d="m98.181,59.572l-41.528,-22.297c-2.307,-1.238 -4.469,-1.663 -6.312,-1.379l35.812,35.646l12.028,-11.97z"/>
  <path id="svg_13" fill="#FFFFFF" d="m102.757,88.068l12.016,-6.471c6.711,-3.612 6.707,-9.517 -0.008,-13.122l-12.082,-6.487l-13.065,13.003l13.139,13.077z"/>
 </g>
</svg>