<svg width="30" height="30" xmlns="http://www.w3.org/2000/svg">

 <g>
  <title>background</title>
  <rect fill="none" id="canvas_background" height="402" width="582" y="-1" x="-1"/>
 </g>
 <g>
  <title>Layer 1</title>
  <path stroke="null" transform="rotate(0.04872479289770126 15.002190589899982,15.01580047607452) " id="svg_1" fill="#2533ff" d="m1.464738,16.669639c0.494137,-1.102559 1.482411,-1.703955 2.569512,-1.703955c0.790619,0 1.581238,0.300698 2.27303,1.002327c1.383583,1.303025 2.371857,2.205118 2.767167,2.405584c0.296482,0.200465 0.889447,0.100233 1.185929,-0.300698c0.197655,-0.300698 0.296482,-0.701629 0.197655,-1.303025c-0.098827,-0.400931 -1.581238,-9.923033 -1.778893,-11.32629c-0.098827,-0.701629 0.098827,-1.403257 0.494137,-1.90442c0.494137,-0.501163 1.087101,-0.801861 1.778893,-0.801861c0.988274,0 2.174203,0.701629 2.470685,2.104886c0.098827,0.801861 0.494137,3.307678 0.790619,5.212098c0,-2.505816 0,-6.114192 0,-7.517449c0,-0.601396 0.197655,-1.202792 0.592964,-1.603722c0.494137,-0.501163 1.087101,-0.701629 1.778893,-0.701629c1.185929,0 2.371857,0.801861 2.470685,2.505816c0,1.703955 0,4.209771 0,6.314657c0.296482,-1.703955 0.592964,-3.608376 0.691792,-4.310004c0.098827,-1.202792 1.087101,-2.004653 2.371857,-2.004653c0.790619,-0.100233 1.581238,0.200465 1.976548,0.801861c0.296482,0.300698 0.691792,1.002327 0.494137,2.104886c-0.296482,1.90442 -0.691792,4.209771 -1.087101,6.013959c0.296482,-0.601396 0.39531,-1.102559 0.592964,-1.703955c0.197655,-1.102559 1.185929,-1.804188 2.27303,-1.804188c0.790619,0 1.482411,0.400931 1.976548,1.002327c0.494137,0.601396 0.592964,1.50349 0.296482,2.405584c-0.790619,2.906747 -1.778893,6.615355 -3.063649,10.925359l-0.098827,0.300698c-1.284756,4.510469 -4.447233,7.016286 -8.894465,7.016286c-2.964822,0 -5.336679,-1.50349 -6.81909,-2.806514c-0.988274,-0.801861 -6.522608,-5.813494 -7.807364,-7.216751c-0.790619,-0.902094 -0.988274,-2.104886 -0.494137,-3.107212zm1.581238,2.104886c1.185929,1.303025 6.324953,5.913727 7.708537,7.116518c1.087101,0.902094 3.261304,2.505816 5.830816,2.505816c3.854268,0 6.423781,-2.004653 7.412054,-5.913727l0.098827,-0.300698c1.284756,-4.410237 2.27303,-8.018612 3.063649,-10.925359c0.098827,-0.300698 0.098827,-0.801861 -0.098827,-1.102559c-0.197655,-0.200465 -0.494137,-0.400931 -0.790619,-0.400931c-0.197655,0 -0.691792,0.100233 -0.889447,0.701629c-0.296482,1.002327 -0.494137,1.804188 -1.087101,3.508143l-0.39531,1.303025c-0.197655,0.801861 -0.790619,1.202792 -1.383583,1.202792c-0.296482,0 -0.592964,-0.100233 -0.889447,-0.400931c-0.296482,-0.300698 -0.39531,-0.801861 -0.296482,-1.303025c0,-0.200465 0.197655,-1.002327 0.39531,-2.104886c0.39531,-2.004653 0.889447,-4.9114 1.284756,-7.316984c0.197655,-0.400931 0.197655,-0.701629 0,-0.902094c-0.197655,-0.200465 -0.494137,-0.300698 -0.790619,-0.300698c-0.098827,0 -0.790619,0 -0.889447,0.701629c-0.197655,1.303025 -0.889447,5.713261 -1.185929,7.417216l-0.098827,0.400931c-0.197655,0.902094 -0.790619,1.202792 -1.185929,1.202792c-0.691792,0 -1.185929,-0.501163 -1.185929,-1.202792l0,-0.300698c0,-1.303025 0,-6.715588 0,-9.722567c0,-0.902094 -0.691792,-1.002327 -0.988274,-1.002327c-0.296482,0 -0.592964,0.100233 -0.790619,0.300698c-0.098827,0.100233 -0.197655,0.300698 -0.197655,0.501163c0,2.004653 0,8.118845 0,9.8228c0,1.102559 -0.691792,1.603722 -1.284756,1.603722c-0.592964,0 -1.185929,-0.501163 -1.284756,-1.102559c0,-0.100233 -0.098827,-0.701629 -0.197655,-1.50349c-0.296482,-1.90442 -0.790619,-5.212098 -0.889447,-6.214425c-0.098827,-0.801861 -0.790619,-0.902094 -0.988274,-0.902094c-0.296482,0 -0.592964,0.100233 -0.691792,0.300698c-0.197655,0.200465 -0.197655,0.400931 -0.197655,0.701629c0.197655,1.403257 1.680066,11.226057 1.680066,11.32629c0.197655,1.303025 -0.197655,2.104886 -0.592964,2.505816c-0.790619,0.902094 -2.174203,1.202792 -3.162477,0.601396c-0.39531,-0.300698 -1.185929,-0.902094 -2.964822,-2.606049c-0.988274,-0.902094 -2.075375,-0.701629 -2.470685,0.200465c0,0.300698 -0.098827,1.002327 0.39531,1.603722z"/>
 </g>
</svg>