<svg width="32" height="32" xmlns="http://www.w3.org/2000/svg">
 <title/>
 <desc/>

 <g>
  <title>background</title>
  <rect fill="none" id="canvas_background" height="402" width="582" y="-1" x="-1"/>
 </g>
 <g>
  <title>Layer 1</title>
  <path stroke="#29ff77" fill="#29ff77" fill-opacity="0.3" transform="rotate(-44.874473571777344 15.329745292663576,16.908464431762695) " id="two-fingers-resize-out" d="m7.642842,9.436732l-3.67094,3.788083l2.879715,0l0,0.920906l-4.462176,0l0,-4.60456l0.892437,0l0,3.093323l3.729924,-3.848947l0.63104,0.651195zm0.833454,-0.98178l-0.63104,-0.651185l3.67094,-3.788083l-2.879715,0l0,-0.920916l4.462176,0l0,4.604571l-0.892437,0l0,-3.093333l-3.729924,3.848947l0,0zm13.100488,22.267209c-3.3553,-0.000427 -5.345684,-1.888892 -6.918705,-4.620142c-3.491224,-6.061791 -5.991375,-8.83554 -5.021145,-9.842134c0.991134,-1.028291 3.409603,1.19921 5.246597,3.225614l0,-10.399972c0,-0.771825 0.599324,-1.386189 1.338651,-1.386189c0.744468,0 1.338651,0.620621 1.338651,1.386189l0,9.664764l0.892437,0l0,-10.598885c0,-0.75025 0.599334,-1.372984 1.338651,-1.372984c0.744468,0 1.338651,0.614709 1.338651,1.372984l0,9.677969l0.892437,0l0,-1.375442c0,-0.768869 0.599334,-1.387296 1.338651,-1.387296c0.744468,0 1.338651,0.621119 1.338651,1.387296l0,2.296358l0.892437,0l0,-0.458914c0,-0.764806 0.599334,-1.382918 1.338651,-1.382918c0.744468,0 1.338651,0.619148 1.338651,1.382918l0,2.069735l0,3.454197c0,3.814554 -2.996669,6.906851 -6.693263,6.906851l0,0l0,0z"/>
 </g>
</svg>