<svg width="32" height="32" xmlns="http://www.w3.org/2000/svg">
 <title/>
 <desc/>

 <g>
  <title>background</title>
  <rect fill="none" id="canvas_background" height="402" width="582" y="-1" x="-1"/>
 </g>
 <g>
  <title>Layer 1</title>
  <path stroke="#29ff77" transform="rotate(-21.729406356811523 16.535081863403327,16.20450401306152) " fill="#29ff77" fill-opacity="0.3" id="one-finger-swipe-right" d="m19.675996,31.313497c4.257503,0 7.708894,-4.33353 7.708894,-9.065394c0,0 0,2.796053 0,0l0,-4.533712l0,-2.716575c0,-1.002463 -0.684229,-1.815107 -1.54152,-1.815107c-0.851361,0 -1.54152,0.811283 -1.54152,1.815107l0,0.602332l-1.02768,0l0,-3.014016c0,-1.005631 -0.684229,-1.820863 -1.54152,-1.820863c-0.851361,0 -1.54152,0.811706 -1.54152,1.820863l0,1.805291l-1.02768,0l0,-3.014016c0,-1.005631 -0.684229,-1.820863 -1.54152,-1.820863c-0.851361,0 -1.54152,0.811706 -1.54152,1.820863l0,4.222741l-1.02768,0l0,-12.685223c0,-1.004828 -0.684229,-1.819413 -1.54152,-1.819413c-0.851361,0 -1.54152,0.806375 -1.54152,1.819413l0,13.652181c-2.115376,-2.659686 -4.900358,-5.585334 -6.041699,-4.235681c-1.117263,1.321187 1.761782,4.961797 5.782087,12.918033c1.811409,3.584814 4.103433,6.063481 7.965917,6.064039l0,0z"/>
 </g>
</svg>