<svg width="24.000000000000004" height="24.000000000000004" xmlns="http://www.w3.org/2000/svg">
 <title/>

 <g>
  <title>background</title>
  <rect fill="none" id="canvas_background" height="402" width="582" y="-1" x="-1"/>
 </g>
 <g>
  <title>Layer 1</title>
  <path fill="#2838ff" id="svg_1" d="m13.722,1.247607l0.58,0c3.74,0 5.483,1.957 6.211,7.174l1.159,-0.05l-0.155,-8.278l-19.033,0l-0.187,8.278l1.114,0.05c0.193,-1.956 0.425,-3.01 0.927,-4.064c0.888,-1.956 2.742,-3.11 5.02,-3.11l0.811,0l0,18.01c0,1.907 -0.116,2.509 -0.579,2.96c-0.386,0.351 -1.158,0.502 -2.047,0.502l-0.888,0l0,1.204l10.581,0l0,-1.204l-0.893,0c-0.883,0 -1.66,-0.151 -2.041,-0.502c-0.464,-0.451 -0.58,-1.054 -0.58,-2.96l0,-18.01m8.09,14.591l-4.88,0l4.88,0z"/>
 </g>
</svg>