<svg width="96" height="96" xmlns="http://www.w3.org/2000/svg">

 <g>
  <title>background</title>
  <rect fill="none" id="canvas_background" height="402" width="582" y="-1" x="-1"/>
 </g>
 <g>
  <title>Layer 1</title>
  <path stroke="null" fill="#9affad" transform="rotate(-89.96793365478516 46.95144271850586,20.103090286254883) " id="svg_1" d="m54.485377,20.103089l-24.108377,-29.091712c-1.664263,-2.008276 -1.664263,-5.264974 0,-7.27325c1.664263,-2.008276 4.363097,-2.008276 6.026295,0l27.12259,32.72898c1.664263,2.008276 1.664263,5.264974 0,7.27325l-27.12259,32.727694c-1.664263,2.008276 -4.363097,2.008276 -6.026295,0c-1.664263,-2.008276 -1.664263,-5.264974 0,-7.27325l24.108377,-29.091712z"/>
  <path stroke="null" fill="#9affad" transform="rotate(-90.33787536621094 46.49948501586913,38.12425994873046) " id="svg_2" d="m53.756388,38.124262l-23.219625,-28.593201c-1.60284,-1.973862 -1.60284,-5.174754 0,-7.148616c1.60284,-1.973862 4.202067,-1.973862 5.804906,0l26.120539,32.168141c1.60284,1.973862 1.60284,5.174754 0,7.148616l-26.120539,32.166878c-1.60284,1.973862 -4.202067,1.973862 -5.804906,0c-1.60284,-1.973862 -1.60284,-5.174754 0,-7.148616l23.219625,-28.593201z"/>
  <path stroke="null" fill="#9affad" transform="rotate(-90.33787536621094 47.0554656982422,74.71189880371095) " id="svg_4" d="m54.127464,74.711895l-22.628,-28.512558c-1.562,-1.968295 -1.562,-5.160159 0,-7.128455c1.562,-1.968295 4.095,-1.968295 5.657,0l25.455,32.077416c1.562,1.968295 1.562,5.160159 0,7.128455l-25.455,32.076155c-1.562,1.968295 -4.095,1.968295 -5.657,0c-1.562,-1.968295 -1.562,-5.160159 0,-7.128455l22.628,-28.512558z"/>
  <path stroke="null" fill="#9affad" transform="rotate(-90.33787536621094 46.724796295166016,55.72941589355469) " id="svg_3" d="m53.658187,55.729414l-22.1845,-28.427456c-1.531385,-1.96242 -1.531385,-5.144758 0,-7.107178c1.531385,-1.96242 4.01474,-1.96242 5.546125,0l24.956092,31.981673c1.531385,1.96242 1.531385,5.144758 0,7.107178l-24.956092,31.980417c-1.531385,1.96242 -4.01474,1.96242 -5.546125,0c-1.531385,-1.96242 -1.531385,-5.144758 0,-7.107178l22.1845,-28.427456z"/>
 </g>
</svg>