<svg width="128" height="128" xmlns="http://www.w3.org/2000/svg">

 <g>
  <title>background</title>
  <rect fill="none" id="canvas_background" height="402" width="582" y="-1" x="-1"/>
 </g>
 <g>
  <title>Layer 1</title>
  <path stroke="null" id="svg_3" fill="#5e889e" d="m120.077122,86l-112.422648,0c-3.576986,0 -6.485922,-2.691 -6.485922,-6l0,-54c0,-3.309 2.908936,-6 6.485922,-6l112.422648,0c3.576986,0 6.485922,2.691 6.485922,6l0,54c0,3.309 -2.908936,6 -6.485922,6zm-112.422648,-62c-1.192329,0 -2.161974,0.897 -2.161974,2l0,54c0,1.103 0.969645,2 2.161974,2l112.422648,0c1.192329,0 2.161974,-0.897 2.161974,-2l0,-54c0,-1.103 -0.969645,-2 -2.161974,-2l-112.422648,0z"/>
  <path id="svg_5" fill="#5e889e" d="m78,103.072307l-28,0c-1.104,0 -2,-0.896 -2,-2s0.896,-2 2,-2l28,0c1.104,0 2,0.896 2,2s-0.896,2 -2,2z"/>
  <polygon stroke="null" id="svg_7" fill="#5e889e" points="70,99.215995490551 66,99.215995490551 66,84.75455927848816 62,84.75455927848816 62,99.215995490551 58,99.215995490551 58,82 70,82 "/>
  <path stroke="null" id="svg_8" fill="#5e889e" d="m113.699058,87.235886l-99.398116,0c-3.919126,0 -7.099865,-1.076374 -7.099865,-2.402621s3.18074,-2.402621 7.099865,-2.402621l99.398116,0c3.919126,0 7.099865,1.076374 7.099865,2.402621s-3.18074,2.402621 -7.099865,2.402621z"/>
  <path stroke="null" id="svg_9" fill="#5e889e" d="m108.951485,88.309541l-90.70821,0c-3.576495,0 -6.479158,-0.835875 -6.479158,-1.865793s2.902663,-1.865793 6.479158,-1.865793l90.70821,0c3.576495,0 6.479158,0.835875 6.479158,1.865793s-2.902663,1.865793 -6.479158,1.865793z"/>
 </g>
</svg>