<svg width="500" height="500" xmlns="http://www.w3.org/2000/svg">

 <g>
  <title>background</title>
  <rect fill="none" id="canvas_background" height="402" width="582" y="-1" x="-1"/>
 </g>
 <g>
  <title>Layer 1</title>
  <path id="svg_1" fill-rule="evenodd" fill="#ffffff" d="m346.362598,42.485c-14,-14.08 -36.715,-14.08 -50.796,0l-107.934,107.66l-22.98,-22.985l-82.045,82.406c-8.908,8.907 -13.176,20.441 -13.176,32.348l0,108.024l0.177,0.175l-25.978,26.086c-14.08,14.072 -14.08,36.787 0,50.787l30.521,30.521c14.002,14.093 36.715,14.093 50.788,0l26.085,-25.979l0.177,0.177l108.208,0c11.623,0.179 23.44,-4.265 32.34,-13.175l82.047,-82.223l-22.804,-22.803l107.662,-107.932c14.079,-14.086 14.079,-36.799 0,-50.792l-112.292,-112.295zm35.969,131.195l8.731,8.721c7.268,7.271 7.268,18.9 0,26.166l-8.731,8.727c-7.268,7.265 -18.898,7.265 -26.157,0l-8.731,-8.727c-7.268,-7.266 -7.268,-18.895 0,-26.166l8.731,-8.721c7.259,-7.272 18.89,-7.272 26.157,0zm-63.598,-63.599l8.731,8.723c7.268,7.271 7.268,18.898 0,26.166l-8.731,8.725c-7.268,7.267 -18.898,7.267 -26.157,0l-8.731,-8.725c-7.264,-7.268 -7.264,-18.895 0,-26.166l8.731,-8.723c7.258,-7.271 18.889,-7.271 26.157,0z" clip-rule="evenodd"/>
 </g>
</svg>