<svg width="90" height="75" xmlns="http://www.w3.org/2000/svg">

 <g>
  <title>background</title>
  <rect fill="none" id="canvas_background" height="402" width="582" y="-1" x="-1"/>
 </g>
 <g>
  <title>Layer 1</title>
  <path fill="#ffffff" id="svg_2" d="m88.42,42.004l-15.74,-37.461c-1.248,-2.498 -4.549,-4.543 -7.336,-4.543l-10.244,0l1.9,20.322l13.5,0l-25.5,21.147l-25.5,-21.147l13.5,0l1.899,-20.322l-10.241,0c-2.789,0 -6.09,2.045 -7.336,4.543l-15.74,37.461c-1.248,2.5 -1.893,6.801 -1.434,9.557l3.4,18.428c0.46,2.755 3.116,5.011 5.903,5.011l71.098,0c2.789,0 5.443,-2.256 5.902,-5.012l3.402,-18.428c0.458,-2.755 -0.187,-7.056 -1.433,-9.556zm-6.815,13.126l-1.295,7.514c-0.387,2.885 -2.984,5.243 -5.771,5.243l-59.076,0c-2.787,0 -5.385,-2.358 -5.773,-5.243l-1.295,-7.514c-0.387,-2.885 1.578,-5.243 4.365,-5.243l64.48,0c2.789,0 4.752,2.358 4.365,5.243z"/>
 </g>
</svg>