<svg width="32" height="25" xmlns="http://www.w3.org/2000/svg">

 <title/>
 <g>
  <title>background</title>
  <rect fill="none" id="canvas_background" height="27" width="34" y="-1" x="-1"/>
 </g>
 <g>
  <title>Layer 1</title>
  <path stroke="null" fill="#ffffff" id="svg_1" d="m26.574791,1.17056a95.961908,86.26 0 0 0 -21.29273,0a5.562364,5 0 0 0 -4.928255,4.97l0,13a5.562364,5 0 0 0 4.928255,5a94.560193,85 0 0 0 10.646365,0.49a94.560193,85 0 0 0 10.646365,-0.53l0,0a5.562364,5 0 0 0 4.928255,-5l0,-13a5.562364,5 0 0 0 -4.928255,-4.93zm2.703309,18a3.337419,3 0 0 1 -2.948053,3l0,0a94.2487,84.72 0 0 1 -20.803242,0a3.337419,3 0 0 1 -2.948053,-3l0,-13a3.337419,3 0 0 1 2.948053,-3a95.672665,86 0 0 1 20.803242,0a3.337419,3 0 0 1 2.948053,3l0,13z" class="cls-1"/>
  <path fill="#ffffff" id="svg_2" d="m21.193148,11.59129l-7.5,-5a1,1 0 0 0 -1,-0.05a1,1 0 0 0 -0.55,0.88l0,10a1,1 0 0 0 0.53,0.88a1,1 0 0 0 1,-0.05l7.5,-5a1,1 0 0 0 0,-1.66l0.02,0zm-7.02,4l0,-6.3l4.67,3.13l-4.67,3.17z" class="cls-1"/>
 </g>
</svg>